<svg xmlns="http://www.w3.org/2000/svg" xmlns:xlink="http://www.w3.org/1999/xlink" width="1920" height="1000" viewBox="0 0 1920 1000">
  <defs>
    <clipPath id="clip-landing">
      <rect width="1920" height="1000"/>
    </clipPath>
  </defs>
  <g id="landing" clip-path="url(#clip-landing)">
    <rect width="1920" height="1000" fill="#072d23"/>
    <g id="Component_1_1" data-name="Component 1 – 1" transform="translate(307.527 -693.353)">
      <path id="blob" d="M1477.462,131.724c108.393,61.3,231.924,90.975,394.964,153.817s364.187,158.835,352.352,248.7c-10.435,89.876-233.872,171.5-360.424,279.4-125.16,106.848-152.043,238.916-247.628,364.021s-259.863,244.306-414.1,228.115c-152.842-17.238-297.041-169.88-475.737-261.44-180.106-92.63-396.11-124.19-549.606-217.642C23.779,832.181-65.818,675.79,43.931,568.8s418.845-164.566,607.6-206.282c190.15-42.762,258.552-70.732,326.527-148.452C1046.045,137.409,1112.191,9.925,1191.9-6.3,1273.012-22.514,1367.668,70.415,1477.462,131.724Z" transform="translate(328.019 19.801) rotate(13)" fill="#f89b02"/>
      <path id="blob-2" data-name="blob" d="M1478.35,131.911c108.558,61.373,232.238,91.16,395.5,154.132s364.7,159.117,352.94,248.919c-10.356,89.816-233.926,171.175-360.491,278.882-125.173,106.663-151.95,238.632-247.5,363.572s-259.868,243.911-414.267,227.572c-153.006-17.383-297.5-170.088-476.456-261.778C547.7,1050.448,331.457,1018.688,177.719,925.131,23.971,830.517-65.869,674.121,43.879,567.305S462.962,403.253,651.86,361.75C842.15,319.2,910.59,291.318,978.552,213.709c67.973-76.551,134.055-203.9,213.825-220.036C1273.55-22.449,1368.39,70.524,1478.35,131.911Z" transform="translate(327.852 0) rotate(13)" fill="#f9ff3a"/>
    </g>
    <text id="Getting_Started" data-name="Getting Started" transform="translate(1225 80)" fill="#072d23" font-size="25" font-family="Montserrat-Bold, Montserrat" font-weight="700"><tspan x="-199.825" y="0">Getting Started</tspan></text>
    <text id="Getting_Started-2" data-name="Getting Started" transform="translate(1534 80)" fill="#072d23" font-size="25" font-family="Montserrat-Bold, Montserrat" font-weight="700"><tspan x="-199.825" y="0">Getting Started</tspan></text>
    <text id="Getting_Started-3" data-name="Getting Started" transform="translate(1843 80)" fill="#072d23" font-size="25" font-family="Montserrat-Bold, Montserrat" font-weight="700"><tspan x="-199.825" y="0">Getting Started</tspan></text>
    <g id="Group_3" data-name="Group 3" transform="translate(1082.683 653.396) rotate(-169)">
      <path id="blob-3" data-name="blob" d="M752.51,49.542c49.932,13.7,108.635,17.153,185.053,28.875s169.873,31.769,160.1,59.488c-9.09,27.659-121.32,62.35-187.643,100.654-65.6,37.925-84.57,79.086-136.615,121.212S636.2,445.309,561.976,447.308c-73.5,1.62-136.749-38.114-219.492-57.824-83.38-19.971-186.935-19.86-257.348-41.269-70.369-21.73-106.915-65.04-48.8-102.318s210.9-68.523,304.49-89.586c94.316-21.442,128.807-32.964,165.315-59.519,36.465-26.235,74.311-67.765,113.771-76.239C660.056,12.02,701.9,35.9,752.51,49.542Z" transform="translate(265.158 -793.675) rotate(13)" fill="#f89b02"/>
      <path id="blob-4" data-name="blob" d="M755.076,50.514c50.117,14.6,109.034,18.478,185.733,31.115s170.5,34.092,160.7,63.173c-9.118,29.022-121.749,65-188.305,104.962-65.831,39.57-84.861,82.735-137.086,126.776s-137.688,89.294-212.183,91.082c-73.77,1.393-137.255-40.619-220.3-61.676C259.942,384.614,156.01,384.3,85.337,361.506c-70.63-23.126-107.318-68.783-49-107.7s211.651-71.106,305.579-92.843c94.655-22.132,129.268-34.091,165.9-61.838C544.416,71.71,582.39,28.236,621.993,19.5,662.278,10.7,704.277,35.971,755.076,50.514Z" transform="translate(300.056 -839.857) rotate(14)" fill="#f9ff3a"/>
    </g>
    <text id="welcome_to_my_library" data-name="welcome
to
my
library" transform="translate(1884.5 368)" fill="#072d23" stroke="#707070" stroke-width="1" font-size="150" font-family="Montserrat-Bold, Montserrat" font-weight="700"><tspan x="-701.4" y="0">welcome</tspan><tspan x="-160.8" y="126">to</tspan><tspan x="-242.1" y="252">my</tspan><tspan x="-506.4" y="378">library</tspan></text>
    <g id="Group_2" data-name="Group 2" transform="translate(-290 55)">
      <rect id="button_shadow" data-name="button shadow" width="396" height="115" rx="57.5" transform="translate(311 794)" fill="#f89b02"/>
      <rect id="button" width="396" height="115" rx="57.5" transform="translate(311 784)" fill="#072d23"/>
      <text id="Getting_Started-4" data-name="Getting Started" transform="translate(689 863)" fill="#f9ff3a" font-size="45" font-family="Montserrat-Bold, Montserrat" font-weight="700"><tspan x="-359.685" y="0">Getting Started</tspan></text>
    </g>
    <path id="Path_1" data-name="Path 1" d="M0,0H200" transform="translate(1050.5 204.5)" fill="#072d23"/>
  </g>
</svg>
