<svg xmlns="http://www.w3.org/2000/svg" xmlns:xlink="http://www.w3.org/1999/xlink" width="1920" height="1000" viewBox="0 0 1920 1000">
  <defs>
    <clipPath id="clip-login">
      <rect width="1920" height="1000"/>
    </clipPath>
  </defs>
  <g id="login" clip-path="url(#clip-login)">
    <rect width="1920" height="1000" fill="#072d23"/>
    <g id="Component_2_1" data-name="Component 2 – 1" transform="translate(-1579.404 -731.067)">
      <g id="Group_5" data-name="Group 5" transform="translate(1579.404 731.067)">
        <path id="blob" d="M1490.294,132.221c109.318,61.715,233.916,91.573,398.356,154.826s367.31,159.892,355.342,250.423c-10.555,90.543-235.965,172.848-363.655,281.58-126.285,107.678-153.445,240.731-249.9,366.791s-262.206,246.2-417.779,229.935c-154.168-17.316-299.575-171.04-479.8-263.219C551.211,1059.3,333.335,1027.578,178.531,933.484,23.718,838.325-66.61,680.807,44.13,573s422.548-165.917,612.964-208c191.821-43.14,260.828-71.338,329.42-149.655,68.6-77.251,135.365-205.7,215.775-222.07C1284.112-23.09,1379.563,70.494,1490.294,132.221Z" transform="translate(-1234.406 -721.552) rotate(13)" fill="#f89b02"/>
        <path id="blob-2" data-name="blob" d="M1491.922,133.4c109.582,61.781,234.407,91.8,399.19,155.217s368.111,160.216,356.294,250.532C2237,629.477,2011.434,711.2,1883.769,819.466,1757.509,926.685,1730.557,1059.4,1634.2,1185.02s-262.114,245.195-417.931,228.686c-154.413-17.558-300.3-171.218-480.945-263.526-182.068-93.387-400.3-125.437-555.494-219.61C24.627,835.334-66.116,677.989,44.578,570.609S467.4,405.812,658,364.162c192.006-42.7,261.056-70.713,329.6-148.738,68.553-76.961,135.172-205.013,215.662-221.2C1285.169-21.956,1380.924,71.6,1491.922,133.4Z" transform="translate(-1305.066 -688.264) rotate(11)" fill="#f9ff3a"/>
      </g>
      <path id="blob-3" data-name="blob" d="M755.076,50.514c50.117,14.6,109.034,18.478,185.733,31.115s170.5,34.092,160.7,63.173c-9.118,29.022-121.749,65-188.305,104.962-65.831,39.57-84.861,82.735-137.086,126.776s-137.688,89.294-212.183,91.082c-73.77,1.393-137.255-40.619-220.3-61.676C259.942,384.614,156.01,384.3,85.337,361.506c-70.63-23.126-107.318-68.783-49-107.7s211.651-71.106,305.579-92.843c94.655-22.132,129.268-34.091,165.9-61.838C544.416,71.71,582.39,28.236,621.993,19.5,662.278,10.7,704.277,35.971,755.076,50.514Z" transform="translate(4001.403 1945.115) rotate(-178)" fill="#f89b02"/>
      <path id="blob-4" data-name="blob" d="M755.076,50.514c50.117,14.6,109.034,18.478,185.733,31.115s170.5,34.092,160.7,63.173c-9.118,29.022-121.749,65-188.305,104.962-65.831,39.57-84.861,82.735-137.086,126.776s-137.688,89.294-212.183,91.082c-73.77,1.393-137.255-40.619-220.3-61.676C259.942,384.614,156.01,384.3,85.337,361.506c-70.63-23.126-107.318-68.783-49-107.7s211.651-71.106,305.579-92.843c94.655-22.132,129.268-34.091,165.9-61.838C544.416,71.71,582.39,28.236,621.993,19.5,662.278,10.7,704.277,35.971,755.076,50.514Z" transform="translate(4025.403 1945.115) rotate(-178)" fill="#f9ff3a"/>
    </g>
  </g>
</svg>
